{"title":"RealWifeStories-Jenni Lee-The Wedding Photographer - 9AUG.2014","uid":10729183,"size":438947155,"categoryP":"porn","categoryS":"movies","magnet":"?xt=urn:btih:d8af109cd6041dc26e93f4737df13f1196deeba9&amp;dn=RealWifeStories-Jenni+Lee-The+Wedding+Photographer+-+9AUG.2014&amp;tr=udp%3A%2F%2Ftracker.openbittorrent.com%3A80&amp;tr=udp%3A%2F%2Fopen.demonii.com%3A1337&amp;tr=udp%3A%2F%2Ftracker.coppersurfer.tk%3A6969&amp;tr=udp%3A%2F%2Fexodus.desync.com%3A6969","seeders":0,"leechers":1,"uploader":"iH2OSO4","files":-1,"time":1407604633,"description":"It's Jenni Lee's wedding day, but her husband is being a massive prick. And not the kind she likes, either! When he storms off halfway through their wedding photos, that's the last straw for the spurned bride-to-be, and she takes the wedding photographer Johnny Sins up to her room for some sexy boudoir shots. bit by bit, Jenni takes off more and more as the shoot gets steamier, until she's down to nothing but some sexy lingerie and her veil! She crawls over to Johnny and undoes his pants, grabbing his stiff cock and giving him the blowjob of a lifetime. Johnny pounds the sexy bride, fucking her tight pussy and then blasting her with a big facial cumshot!\n\nGeneral\n\nSOURCE : &lt;a href=&quot; http://nuscotower.com/i/drtiertyj.html&quot; rel=&quot;nofollow&quot; target=&quot;_NEW&quot;&gt; http://nuscotower.com/i/drtiertyj.html&lt;/a&gt;\n\nRealWifeStories-Jenni Lee-The Wedding Photographer - 9AUG.2014.mp4\nFormat                           : MPEG-4\nFormat profile                   : Base Media\nCodec ID                         : isom\nFile size                        : 418 MiB\nDuration                         : 27mn 32s\nOverall bit rate                 : 2 124 Kbps\nEncoded date                     : UTC 2014-08-09 14:26:24\nTagged date                      : UTC 2014-08-09 14:26:24\n\nVideo\nID                               : 1\nFormat                           : MPEG-4 Visual\nFormat profile                   : Simple@L1\nFormat settings, BVOP            : No\nFormat settings, QPel            : No\nFormat settings, GMC             : No warppoints\nFormat settings, Matrix          : Default (H.263)\nCodec ID                         : 20\nDuration                         : 27mn 32s\nBit rate mode                    : Variable\nBit rate                         : 1 996 Kbps\nMaximum bit rate                 : 5 865 Kbps\nWidth                            : 856 pixels\nHeight                           : 480 pixels\nDisplay aspect ratio             : 16:9\nFrame rate mode                  : Constant\nFrame rate                       : 29.970 fps\nColor space                      : YUV\nChroma subsampling               : 4:2:0\nBit depth                        : 8 bits\nScan type                        : Progressive\nCompression mode                 : Lossy\nBits/(Pixel*Frame)               : 0.162\nStream size                      : 393 MiB (94%)\nWriting library                  : Lavc53.8.0\nEncoded date                     : UTC 2014-08-09 14:26:24\nTagged date                      : UTC 2014-08-09 14:26:40\n\nAudio\nID                               : 2\nFormat                           : AAC\nFormat/Info                      : Advanced Audio Codec\nFormat profile                   : LC\nCodec ID                         : 40\nDuration                         : 27mn 32s\nBit rate mode                    : Variable\nBit rate                         : 126 Kbps\nMaximum bit rate                 : 195 Kbps\nChannel(s)                       : 2 channels\nChannel positions                : Front: L R\nSampling rate                    : 44.1 KHz\nCompression mode                 : Lossy\nStream size                      : 24.7 MiB (6%)\nEncoded date                     : UTC 2014-08-09 14:26:36\nTagged date                      : UTC 2014-08-09 14:26:40\n","torrent":{"xt":"urn:btih:d8af109cd6041dc26e93f4737df13f1196deeba9","amp;dn":"RealWifeStories-Jenni+Lee-The+Wedding+Photographer+-+9AUG.2014","amp;tr":["udp%3A%2F%2Ftracker.openbittorrent.com%3A80","udp%3A%2F%2Fopen.demonii.com%3A1337","udp%3A%2F%2Ftracker.coppersurfer.tk%3A6969","udp%3A%2F%2Fexodus.desync.com%3A6969"],"infoHash":"d8af109cd6041dc26e93f4737df13f1196deeba9","infoHashBuffer":{"type":"Buffer","data":[216,175,16,156,214,4,29,194,110,147,244,115,125,241,63,17,150,222,235,169]},"announce":[],"urlList":[]}}